<?xml version="1.0" encoding="UTF-8" standalone="no"?>
<!-- Created with Inkscape (http://www.inkscape.org/) -->

<svg
   version="1.1"
   id="svg1"
   width="546.1333"
   height="546.1333"
   viewBox="0 0 546.1333 546.1333"
   sodipodi:docname="aliancas.svg"
   inkscape:version="1.4.2 (f4327f4, 2025-05-13)"
   xmlns:inkscape="http://www.inkscape.org/namespaces/inkscape"
   xmlns:sodipodi="http://sodipodi.sourceforge.net/DTD/sodipodi-0.dtd"
   xmlns="http://www.w3.org/2000/svg"
   xmlns:svg="http://www.w3.org/2000/svg">
  <defs
     id="defs1" />
  <sodipodi:namedview
     id="namedview1"
     pagecolor="#ffffff"
     bordercolor="#000000"
     borderopacity="0.25"
     inkscape:showpageshadow="2"
     inkscape:pageopacity="0.0"
     inkscape:pagecheckerboard="0"
     inkscape:deskcolor="#d1d1d1"
     inkscape:zoom="1.0448643"
     inkscape:cx="115.80451"
     inkscape:cy="321.09434"
     inkscape:window-width="1920"
     inkscape:window-height="1009"
     inkscape:window-x="-8"
     inkscape:window-y="821"
     inkscape:window-maximized="1"
     inkscape:current-layer="g1" />
  <g
     inkscape:groupmode="layer"
     inkscape:label="Image"
     id="g1">
    <path
       style="fill:#000000"
       d="M 321.91374,532.57253 C 248.13531,524.99044 185.11312,471.37009 164.61863,398.74317 l -2.12439,-7.52826 -11.39009,-3.72055 C 79.526765,364.11372 30.503283,301.05765 23.836745,223.79765 L 22.664992,210.21794 23.802133,195.8152 C 31.208061,102.01355 101.17496,30.440162 192.87121,22.864189 l 14.07947,-1.16325 13.27491,1.198657 c 75.46297,6.813926 137.14332,56.968761 159.98958,130.094114 l 3.61045,11.55618 11.2968,3.69335 c 71.48404,23.37083 120.51313,86.4674 127.17412,163.66305 l 1.17175,13.5797 -1.13714,14.40275 c -8.34816,105.7357 -98.23587,183.18481 -200.41741,172.68379 z m 32.45093,-37.30749 c 54.50971,-3.74536 105.94355,-45.36719 124.1753,-100.48641 29.39624,-88.87231 -26.89925,-182.7487 -117.81944,-196.47158 l -10.96394,-1.65482 -14.65413,0.51636 -14.65413,0.51636 -11.70009,2.70787 c -48.04474,11.11945 -95.91673,53.64875 -105.59947,93.81417 l -0.6903,2.86349 7.217,-0.65008 c 3.96936,-0.35755 10.03999,-1.18179 13.49029,-1.83166 l 6.27329,-1.18156 1.54225,-2.91515 c 20.10013,-37.99305 54.24314,-62.49232 94.2749,-67.64684 l 9.67948,-1.24633 11.80669,0.58859 11.8067,0.5886 11.69341,3.04004 11.6934,3.04004 10.77626,5.40402 c 43.02727,21.57709 68.84608,63.42438 68.95122,111.75652 l 0.0276,12.69948 -1.54501,9.10928 c -8.72683,51.45276 -48.82192,92.47314 -99.11166,101.39889 l -8.89112,1.57806 h -12.08285 c -46.45993,0 -87.87608,-25.87594 -108.27998,-67.65105 l -3.9645,-8.11696 -6.43863,0.40573 c -3.54125,0.22315 -9.18629,0.65112 -12.54452,0.95105 l -6.10589,0.54532 v 1.28114 c 0,0.70463 3.07485,7.52704 6.833,15.1609 l 6.833,13.87975 6.26547,8.52891 c 27.97675,38.0835 78.56783,63.4471 120.25971,60.29163 2.14927,-0.16267 7.30027,-0.52886 11.44667,-0.81376 z m 3.34078,-63.42149 8.92579,-1.88437 8.34,-3.99799 c 19.80352,-9.49332 33.57496,-23.55188 42.80235,-43.69473 l 3.98618,-8.70159 1.84208,-9.13074 c 4.65544,-23.0759 0.062,-46.78431 -12.90732,-66.61879 l -5.76382,-8.81486 -6.5713,-6.15965 c -5.98908,-5.61391 -16.66863,-13.2408 -18.41925,-13.15426 -0.39283,0.0194 -2.16392,3.71139 -3.93577,8.20439 -19.94962,50.58772 -57.61143,87.79485 -109.16237,107.8445 l -2.5436,0.98928 3.34884,5.68687 c 14.84931,25.21655 42.47017,40.96112 72.33991,41.23554 l 8.79248,0.0808 z M 236.91979,355.46049 c 38.47861,-9.23116 69.64631,-30.99543 90.86198,-63.44852 5.32663,-8.148 14.10502,-25.74543 15.22229,-30.51503 l 0.67076,-2.86349 -7.21701,0.65009 c -3.96935,0.35754 -10.03998,1.18179 -13.49029,1.83165 l -6.27328,1.18157 -1.54225,2.91514 c -19.5568,36.96604 -52.42673,61.15084 -91.42092,67.265 l -9.76942,1.53182 -12.70024,-0.5462 C 143.07643,330.96017 96.001767,288.7457 85.946088,230.05288 l -1.484636,-8.6655 -0.0072,-12.2138 -0.0072,-12.2138 1.542636,-9.09527 C 94.714023,136.42647 134.81547,95.40426 185.09897,86.479612 l 8.89113,-1.578056 12.15602,0 12.15601,0 8.67232,1.53922 c 37.36755,6.63224 70.61313,31.786334 87.37847,66.111834 l 3.96451,8.11696 6.43863,-0.40573 c 3.54125,-0.22316 9.18628,-0.65113 12.54452,-0.95105 l 6.10589,-0.54532 -0.014,-1.16967 c -0.0823,-6.85182 -19.0419,-37.864 -31.06848,-50.81856 C 221.12487,8.5431757 59.971992,74.077767 59.986838,209.3949 l 0.0015,13.99123 1.44511,9.08421 C 71.748479,297.31211 120.02766,346.24745 184.65339,357.3649 l 7.81554,1.3445 17.09648,-0.394 17.09649,-0.39401 z m -67.63453,-75.60978 c 17.32231,-48.33997 56.601,-88.63201 105.2468,-107.96204 3.76122,-1.49457 6.72333,-3.11116 6.58246,-3.59242 -0.8447,-2.88581 -7.76926,-12.85834 -12.92476,-18.61385 l -6.0214,-6.72218 -8.61701,-5.89616 c -19.38929,-13.26707 -42.56556,-17.96601 -65.12351,-13.20368 l -8.9258,1.88438 -8.33999,3.99798 c -19.80352,9.49333 -33.57496,23.55189 -42.80235,43.69473 l -3.98618,8.7016 -1.84208,9.13073 c -7.09728,35.17946 7.72556,71.50127 37.20794,91.17415 7.16356,4.78007 6.87569,4.85827 9.54588,-2.59324 z"
       id="path2" />
  </g>
</svg>
