<?xml version="1.0" encoding="UTF-8" standalone="no"?>
<!-- Created with Inkscape (http://www.inkscape.org/) -->

<svg
   version="1.1"
   id="svg1"
   width="546.1333"
   height="546.1333"
   viewBox="0 0 546.1333 546.1333"
   sodipodi:docname="aliancas.svg"
   inkscape:version="1.4.2 (f4327f4, 2025-05-13)"
   xmlns:inkscape="http://www.inkscape.org/namespaces/inkscape"
   xmlns:sodipodi="http://sodipodi.sourceforge.net/DTD/sodipodi-0.dtd"
   xmlns="http://www.w3.org/2000/svg"
   xmlns:svg="http://www.w3.org/2000/svg">
  <defs
     id="defs1" />
  <sodipodi:namedview
     id="namedview1"
     pagecolor="#ffffff"
     bordercolor="#000000"
     borderopacity="0.25"
     inkscape:showpageshadow="2"
     inkscape:pageopacity="0.0"
     inkscape:pagecheckerboard="0"
     inkscape:deskcolor="#d1d1d1"
     inkscape:zoom="1.0448643"
     inkscape:cx="115.80451"
     inkscape:cy="321.09434"
     inkscape:window-width="1920"
     inkscape:window-height="1009"
     inkscape:window-x="-8"
     inkscape:window-y="821"
     inkscape:window-maximized="1"
     inkscape:current-layer="g1" />
  <g
     inkscape:groupmode="layer"
     inkscape:label="Image"
     id="g1">
    <path
       style="fill:#000000;stroke-width:1.05875"
       d="M 320.37363,543.04419 C 242.2608,535.01667 175.53613,478.24619 153.8376,401.35252 l -2.24918,-7.97054 -12.05926,-3.93913 C 63.746696,364.68863 11.843141,297.92808 4.7849519,216.12916 L 3.5443595,201.75165 4.7483064,186.50277 C 12.589324,87.190377 86.666693,11.41214 183.74999,3.3910872 l 14.90664,-1.2315897 14.05478,1.2690766 C 292.60775,10.642811 357.91174,63.744183 382.1002,141.16556 l 3.82255,12.2351 11.96047,3.91033 c 75.68366,24.74384 127.59315,91.54727 134.64546,173.27806 l 1.24059,14.3775 -1.20394,15.24888 c -8.8386,111.94755 -104.00713,193.94672 -212.1917,182.82876 z m 34.35738,-39.49926 C 412.4431,499.57954 466.89861,455.51248 486.20146,397.15506 517.32469,303.06161 457.72191,203.6701 361.46026,189.14102 l -11.60806,-1.75204 -15.51503,0.54669 -15.51504,0.54669 -12.38746,2.86697 c -50.86733,11.77268 -101.55173,56.80053 -111.80332,99.32562 l -0.73084,3.03173 7.64097,-0.68828 c 4.20256,-0.37855 10.62983,-1.25122 14.28284,-1.93927 l 6.64184,-1.25097 1.63285,-3.08641 c 21.281,-40.22511 57.42986,-66.16368 99.81344,-71.62101 l 10.24815,-1.31956 12.50031,0.62318 12.50032,0.62318 12.3804,3.21865 12.38036,3.21863 11.40936,5.7215 c 45.55506,22.84472 72.89071,67.15048 73.00202,118.32207 l 0.0292,13.44558 -1.63577,9.64442 c -9.23954,54.47556 -51.69017,97.90584 -104.93436,107.35597 l -9.41347,1.67077 h -12.79274 c -49.18939,0 -93.0387,-27.39612 -114.64131,-71.62548 l -4.1974,-8.59381 -6.81689,0.42957 c -3.7493,0.23625 -9.72598,0.68936 -13.28149,1.00691 l -6.46461,0.57736 v 1.3564 c 0,0.74604 3.2555,7.96925 7.23442,16.05158 l 7.23444,14.69518 6.63355,9.02997 c 29.62037,40.32086 83.18361,67.17455 127.32483,63.8337 2.27554,-0.17222 7.72916,-0.55993 12.11916,-0.86158 z m 3.53705,-67.14741 9.45016,-1.99508 8.82997,-4.23287 c 20.96694,-10.05103 35.54745,-24.93552 45.31693,-46.26175 l 4.22036,-9.21279 1.95031,-9.66717 c 4.92895,-24.43159 0.0656,-49.53282 -13.66561,-70.53256 l -6.10244,-9.33273 -6.95736,-6.52151 c -6.34092,-5.94373 -17.64788,-14.01869 -19.50136,-13.92708 -0.4159,0.0206 -2.29104,3.92944 -4.16699,8.68641 -21.12163,53.55968 -60.99603,92.95268 -115.57552,114.18022 l -2.69303,1.0474 3.54557,6.02097 c 15.72168,26.69801 44.96523,43.36755 76.5898,43.65808 l 9.30902,0.0856 z M 230.38639,355.52703 c 40.73918,-9.77347 73.73795,-32.81638 96.2,-67.17604 5.63956,-8.62669 14.93367,-27.25795 16.11659,-32.30775 l 0.71016,-3.03172 -7.641,0.68829 c -4.20255,0.37853 -10.62983,1.25121 -14.28282,1.93925 l -6.64183,1.25098 -1.63286,3.08641 c -20.70574,39.13775 -55.50675,64.74337 -96.7918,71.21673 l -10.34335,1.62181 -13.44638,-0.57828 C 131.02983,329.58735 81.189585,284.89282 70.543146,222.75186 l -1.571857,-9.17458 -0.0076,-12.93133 -0.0076,-12.93136 1.633265,-9.62962 C 79.826187,123.62503 122.28355,80.192803 175.52115,70.743842 l 9.41347,-1.670764 h 12.87017 12.87016 l 9.1818,1.629647 c 39.56286,7.021875 74.76158,33.653745 92.51187,69.995835 l 4.19742,8.5938 6.81688,-0.42956 c 3.7493,-0.23626 9.72597,-0.68938 13.28151,-1.00691 l 6.46459,-0.57736 -0.0149,-1.23839 C 343.02704,138.78579 322.95361,105.95168 310.22048,92.236052 213.66352,-11.771269 43.043102,57.613403 43.05882,200.88025 l 0.0016,14.8132 1.530007,9.6179 c 10.920986,68.65116 62.036503,120.46139 130.458923,132.23197 l 8.2747,1.4235 18.10089,-0.41715 18.10087,-0.41717 z m -71.60798,-80.05176 c 18.33997,-51.17989 59.92623,-93.83904 111.42992,-114.30468 3.98218,-1.58238 7.1183,-3.29396 6.96917,-3.80348 -0.89432,-3.05534 -8.22569,-13.61375 -13.68407,-19.70739 l -6.37516,-7.1171 -9.12325,-6.24256 c -20.5284,-14.0465 -45.06624,-19.02149 -68.94944,-13.97938 l -9.45018,1.99509 -8.82996,4.23285 c -20.96694,10.05105 -35.54745,24.93554 -45.31694,46.26176 l -4.22036,9.2128 -1.9503,9.66716 c -7.51424,37.2462 8.17944,75.70187 39.39387,96.53052 7.58441,5.06089 7.27963,5.14368 10.1067,-2.74559 z"
       id="path2" />
  </g>
</svg>
