<?xml version="1.0" encoding="UTF-8" standalone="no"?>
<!-- Created with Inkscape (http://www.inkscape.org/) -->

<svg
   version="1.1"
   id="svg1"
   width="512"
   height="512"
   viewBox="0 0 512 512"
   sodipodi:docname="joiassobmedida.svg"
   inkscape:version="1.4.2 (f4327f4, 2025-05-13)"
   xmlns:inkscape="http://www.inkscape.org/namespaces/inkscape"
   xmlns:sodipodi="http://sodipodi.sourceforge.net/DTD/sodipodi-0.dtd"
   xmlns="http://www.w3.org/2000/svg"
   xmlns:svg="http://www.w3.org/2000/svg">
  <defs
     id="defs1" />
  <sodipodi:namedview
     id="namedview1"
     pagecolor="#ffffff"
     bordercolor="#000000"
     borderopacity="0.25"
     inkscape:showpageshadow="2"
     inkscape:pageopacity="0.0"
     inkscape:pagecheckerboard="0"
     inkscape:deskcolor="#d1d1d1"
     inkscape:zoom="1.5761719"
     inkscape:cx="255.68278"
     inkscape:cy="256"
     inkscape:window-width="1920"
     inkscape:window-height="1009"
     inkscape:window-x="-8"
     inkscape:window-y="821"
     inkscape:window-maximized="1"
     inkscape:current-layer="g1" />
  <g
     inkscape:groupmode="layer"
     inkscape:label="Image"
     id="g1">
    <path
       style="fill:#000000"
       d="m 232.93929,508.37182 c -81.0717,-9.1149 -146.100217,-68.75018 -162.228803,-148.77413 -2.703964,-13.41604 -3.753909,-43.88438 -1.977593,-57.38774 2.845228,-21.6291 8.06583,-39.11951 17.489414,-58.59419 l 6.385349,-13.1959 -3.539718,-4.31976 C 79.047891,213.87195 62.757,205.22577 46.209729,203.35366 l -6.095725,-0.68965 0,-14.70499 0,-14.70499 3.797212,0 c 6.094844,0 18.471243,-3.60031 26.165347,-7.61153 10.121403,-5.27666 21.813964,-17.1377 26.614635,-26.99813 4.193752,-8.61385 6.709052,-17.65756 6.709052,-24.12229 l 0,-4.55429 14.75415,0 14.75414,0 0.50938,2.71933 c 0.28015,1.49563 0.7903,4.84998 1.13366,7.45411 1.52719,11.58256 7.47007,23.29188 16.88881,33.27624 9.44215,10.00918 8.96706,9.91771 21.29871,4.10089 5.7621,-2.71798 14.8784,-6.40686 20.25844,-8.19753 5.38004,-1.79066 9.94001,-3.34068 10.13326,-3.44448 0.25409,-0.13648 -22.74185,-43.86315 -35.02421,-66.598352 -0.15745,-0.291464 7.1386,-17.423248 16.21346,-38.070633 L 200.8198,3.6666667 252.23085,3.4109129 303.64189,3.1551591 320.23541,40.995749 336.82893,78.83634 318.95771,112.32449 c -9.82917,18.41848 -17.74123,33.54858 -17.58236,33.62244 0.15886,0.0739 4.96115,1.66762 10.67175,3.5417 5.71059,1.87407 16.39015,6.43898 23.73234,10.14424 43.43813,21.92117 76.95021,60.73309 91.9919,106.54016 10.39191,31.64689 12.21637,63.69656 5.4705,96.09829 -10.16554,48.82699 -40.42312,92.17248 -83.0018,118.9042 -34.4251,21.61275 -77.70738,31.64779 -117.30075,27.1963 z m 39.75047,-30.05141 c 34.58935,-4.56969 63.96649,-19.12393 88.79972,-43.99382 13.08669,-13.10601 21.28529,-24.24017 29.10271,-39.52312 18.68787,-36.53453 22.1809,-78.49675 9.753,-117.16426 -8.45965,-26.32095 -20.98362,-46.18131 -41.58635,-65.94717 -20.70079,-19.85994 -45.57185,-32.89494 -75.59525,-39.61971 -8.90909,-1.9955 -12.76126,-2.27386 -30.94177,-2.23584 -22.26452,0.0465 -31.75761,1.38579 -47.46469,6.69605 l -6.92193,2.34017 -0.27765,12.02338 -0.27765,12.02337 -2.48337,0 c -11.32839,0 -29.87596,7.51506 -39.31833,15.93091 -12.80937,11.4168 -19.41469,24.57086 -21.91746,43.64716 l -0.61624,4.69703 h -12.69017 -12.69017 l -3.06317,9.64126 c -12.040635,37.89758 -9.460988,77.85035 7.34229,113.71517 23.00555,49.10291 69.14085,81.65595 125.54582,88.58505 7.5674,0.92962 25.1686,0.52294 35.30066,-0.81563 z m -37.27835,-38.12045 c -27.80167,-4.3079 -55.65867,-20.07883 -73.08083,-41.3739 -29.20855,-35.70155 -35.02265,-84.38653 -14.96739,-125.33108 15.29497,-31.22603 42.48053,-53.41617 76.36679,-62.3342 12.82221,-3.37449 34.95664,-4.2723 48.28414,-1.95847 58.1706,10.09917 100.81816,63.66732 96.94786,121.77292 -3.54941,53.28802 -40.73031,96.52569 -92.78504,107.89972 -8.46675,1.85 -32.36454,2.62675 -40.76553,1.32501 z m 31.09624,-29.68293 c 33.16041,-5.38019 59.70138,-29.27441 69.91973,-62.94712 2.2919,-7.55254 2.64427,-10.48753 2.70465,-22.52777 0.0573,-11.43316 -0.31966,-15.27938 -2.165,-22.08752 -8.56003,-31.58118 -32.25078,-55.18038 -63.3017,-63.05709 -12.37913,-3.14023 -29.41665,-3.28309 -41.71489,-0.34979 -42.25122,10.07751 -71.6372,52.01876 -66.27803,94.59558 3.85995,30.66595 21.14506,54.89768 49.16653,68.92581 15.03141,7.52503 34.18051,10.28532 51.66871,7.4479 z M 129.60134,203.02083 c 3.26505,-3.47938 8.46575,-8.20528 11.5571,-10.50201 l 5.62064,-4.17587 -7.59833,-5.98605 c -6.46326,-5.09183 -13.88719,-12.93457 -19.26109,-20.34769 -1.25556,-1.73201 -1.56905,-1.54163 -4.8851,2.96654 -4.2418,5.76673 -14.46083,15.94661 -20.283012,20.20531 l -4.198889,3.07132 5.68216,4.21797 c 5.905451,4.38373 14.545251,13.10681 19.533971,19.72227 l 2.8916,3.8345 2.50224,-3.34008 c 1.37623,-1.83704 5.17365,-6.18683 8.43871,-9.66621 z m 153.42257,-86.21081 c 6.73601,-12.62739 12.08643,-23.119765 11.8898,-23.316388 -0.19662,-0.196623 -19.54303,-0.241472 -42.99202,-0.09966 l -42.63453,0.257831 12.37999,23.237921 12.38,23.23792 18.36473,-0.17936 18.36473,-0.17936 z m 14.19047,-54.068947 c 0,-0.41298 -2.84824,-7.198947 -6.32942,-15.079926 l -6.32942,-14.329052 -32.11876,-0.260574 -32.11875,-0.260574 -6.00866,13.668715 c -3.30477,7.517793 -6.29735,14.421018 -6.65019,15.3405 -0.59661,1.554755 2.5155,1.671785 44.45684,1.671785 24.8041,0 45.09836,-0.337893 45.09836,-0.750874 z M 441.58613,188.08675 v -14.83272 h 14.83272 14.83271 v 14.83272 14.83271 h -14.83271 -14.83272 z m -68.0097,-67.98328 0.27364,-14.5855 14.58551,-0.27365 14.5855,-0.27364 v 14.85915 14.85915 h -14.85915 -14.85915 z"
       id="path1" />
  </g>
</svg>
