<?xml version="1.0" encoding="UTF-8" standalone="no"?>
<!-- Created with Inkscape (http://www.inkscape.org/) -->

<svg
   version="1.1"
   id="svg1"
   width="546.1333"
   height="546.1333"
   viewBox="0 0 546.1333 546.1333"
   sodipodi:docname="oculos.svg"
   inkscape:version="1.4.2 (f4327f4, 2025-05-13)"
   xmlns:inkscape="http://www.inkscape.org/namespaces/inkscape"
   xmlns:sodipodi="http://sodipodi.sourceforge.net/DTD/sodipodi-0.dtd"
   xmlns="http://www.w3.org/2000/svg"
   xmlns:svg="http://www.w3.org/2000/svg">
  <defs
     id="defs1" />
  <sodipodi:namedview
     id="namedview1"
     pagecolor="#ffffff"
     bordercolor="#000000"
     borderopacity="0.25"
     inkscape:showpageshadow="2"
     inkscape:pageopacity="0.0"
     inkscape:pagecheckerboard="0"
     inkscape:deskcolor="#d1d1d1"
     inkscape:zoom="1.4776612"
     inkscape:cx="272.72828"
     inkscape:cy="273.06665"
     inkscape:window-width="1920"
     inkscape:window-height="1009"
     inkscape:window-x="-8"
     inkscape:window-y="821"
     inkscape:window-maximized="1"
     inkscape:current-layer="g1" />
  <g
     inkscape:groupmode="layer"
     inkscape:label="Image"
     id="g1">
    <path
       style="fill:#000000"
       d="M 109.51845,457.3904 C 92.553684,455.27692 72.113119,444.6838 60.915187,432.20223 54.2125,424.7312 47.946926,414.40343 45.028154,406.01506 43.395597,401.32319 22.822964,303.21445 22.822964,300.12082 c 0,-0.2742 -4.526096,-0.49854 -10.057992,-0.49854 H 2.7069805 l 0,-15.85716 0,-15.85715 19.3219315,-0.28857 19.321931,-0.28857 32.489058,-70.40594 c 42.731129,-92.60118 42.336499,-91.79585 47.682259,-97.30716 16.69074,-17.207607 41.36822,-20.277492 61.00943,-7.589589 2.70865,1.749742 16.11479,14.392389 29.79142,28.094769 l 24.86661,24.91343 -11.06983,11.10763 -11.06983,11.10763 -24.91351,-24.76113 c -26.50909,-26.34697 -28.87683,-28.0425 -36.91529,-26.43481 -7.92952,1.58591 -8.60658,2.80541 -43.13452,77.69302 -17.853888,38.72327 -32.698648,71.2397 -32.988359,72.25873 -0.49788,1.75125 3.327805,1.85279 69.810519,1.85279 77.06991,0 75.74292,-0.0973 87.13199,6.38893 8.90517,5.07162 17.55465,15.40943 20.56492,24.5791 0.71686,2.18364 1.38554,3.9651 1.48596,3.9588 0.10041,-0.006 2.52134,-0.72095 5.37984,-1.58811 6.65446,-2.0187 17.8893,-2.0187 24.54376,0 2.85849,0.86716 5.27942,1.5818 5.37984,1.58811 0.10042,0.006 0.7691,-1.77516 1.48596,-3.9588 3.01027,-9.16967 11.65974,-19.50748 20.56492,-24.5791 11.38906,-6.48623 10.06207,-6.38893 87.13199,-6.38893 66.48271,0 70.3084,-0.10154 69.81051,-1.85279 -0.28971,-1.01903 -15.13447,-33.53546 -32.98835,-72.25873 -34.52794,-74.88761 -35.205,-76.10711 -43.13453,-77.69302 -8.03845,-1.60769 -10.4062,0.0878 -36.91529,26.43481 l -24.9135,24.76113 -11.06983,-11.10763 -11.06983,-11.10763 24.8666,-24.91343 c 13.67664,-13.70238 27.08277,-26.345027 29.79142,-28.094769 19.64121,-12.687903 44.31869,-9.618018 61.00943,7.589589 5.34576,5.51131 4.95114,4.70598 47.68226,97.30716 l 32.48906,70.40594 19.32193,0.28857 19.32194,0.28857 v 15.85715 15.85716 h -10.058 c -5.53189,0 -10.05799,0.22434 -10.05799,0.49854 0,3.09363 -20.57263,101.20237 -22.20519,105.89424 -9.5938,27.572 -36.21071,48.03666 -67.00044,51.51393 -5.78817,0.65369 -23.84349,0.9123 -44.1951,0.63302 -33.64891,-0.46176 -34.61938,-0.53534 -43.93754,-3.33102 -23.66928,-7.10138 -42.91139,-24.49578 -51.90676,-46.92248 -4.51961,-11.268 -5.79422,-20.8109 -5.796,-43.39402 -0.001,-17.83685 -0.27707,-21.50288 -1.85279,-24.63914 -5.69399,-11.3332 -22.35921,-11.3332 -28.05321,0 -1.57571,3.13626 -1.85139,6.80229 -1.85279,24.63914 -0.003,36.0147 -5.25573,51.46634 -23.8232,70.07695 -10.03927,10.06259 -20.18924,16.12858 -33.87955,20.24764 -9.47594,2.85107 -9.7335,2.86846 -46.58438,3.14532 -20.38067,0.15312 -40.20696,-0.11418 -44.05841,-0.594 z m 83.87339,-33.60379 c 16.78966,-6.19729 28.47816,-19.56579 31.62777,-36.17366 0.59882,-3.15753 1.07993,-21.33011 1.07901,-40.75674 -0.002,-39.12172 -0.15398,-40.05589 -7.30139,-44.83067 l -3.59746,-2.40326 H 135.03604 54.872317 l 9.40148,46.78994 c 6.17464,30.73037 10.278869,48.7064 11.957775,52.37362 4.44202,9.70265 15.474507,19.93963 25.996588,24.12209 8.05087,3.20016 14.12762,3.60273 50.28996,3.33154 32.33644,-0.2425 35.3803,-0.42516 40.87372,-2.45286 z m 250.27867,-0.24062 c 11.98131,-4.67945 22.86323,-14.44711 27.58469,-24.76015 1.67891,-3.66722 5.78314,-21.64325 11.95778,-52.37362 l 9.40148,-46.78994 H 412.45073 332.287 l -3.59746,2.40326 c -7.14741,4.77478 -7.29955,5.70895 -7.30139,44.83067 -9.1e-4,19.42663 0.4802,37.59921 1.07901,40.75674 3.02115,15.93043 14.93337,30.0391 30.00834,35.54146 8.03053,2.93115 14.73062,3.34867 49.90431,3.10983 33.84275,-0.2298 35.13747,-0.31503 41.2907,-2.71825 z"
       id="path1" />
  </g>
</svg>
