<?xml version="1.0" encoding="UTF-8" standalone="no"?>
<!-- Created with Inkscape (http://www.inkscape.org/) -->

<svg
   version="1.1"
   id="svg1"
   width="512"
   height="512"
   viewBox="0 0 512 512"
   sodipodi:docname="qualidade.svg"
   inkscape:version="1.4.2 (f4327f4, 2025-05-13)"
   xmlns:inkscape="http://www.inkscape.org/namespaces/inkscape"
   xmlns:sodipodi="http://sodipodi.sourceforge.net/DTD/sodipodi-0.dtd"
   xmlns="http://www.w3.org/2000/svg"
   xmlns:svg="http://www.w3.org/2000/svg">
  <defs
     id="defs1" />
  <sodipodi:namedview
     id="namedview1"
     pagecolor="#ffffff"
     bordercolor="#000000"
     borderopacity="0.25"
     inkscape:showpageshadow="2"
     inkscape:pageopacity="0.0"
     inkscape:pagecheckerboard="0"
     inkscape:deskcolor="#d1d1d1"
     inkscape:zoom="1.5761719"
     inkscape:cx="255.68278"
     inkscape:cy="256"
     inkscape:window-width="1920"
     inkscape:window-height="1009"
     inkscape:window-x="-8"
     inkscape:window-y="821"
     inkscape:window-maximized="1"
     inkscape:current-layer="g1" />
  <g
     inkscape:groupmode="layer"
     inkscape:label="Image"
     id="g1">
    <path
       style="fill:#000000"
       d="m 168.97015,476.81473 c -14.27087,-17.41158 -26.27176,-31.8581 -26.66863,-32.10338 -0.39688,-0.24528 -18.97405,-3.44248 -41.28262,-7.10488 -22.308566,-3.6624 -40.718474,-6.78648 -40.910909,-6.94239 -0.192434,-0.15591 12.331049,-22.25447 27.829962,-49.10791 15.498917,-26.85344 28.702507,-49.82401 29.341317,-51.04571 0.99458,-1.90209 0.59828,-3.39594 -2.75791,-10.39591 -2.15567,-4.49605 -4.39097,-9.95679 -4.96735,-12.13498 -0.86266,-3.26013 -2.37513,-4.98228 -8.55434,-9.74024 C 73.518146,277.07864 60.936543,237.64304 70.928558,203.98484 l 2.156386,-7.26381 -2.174193,-8.05767 c -4.665701,-17.29132 -4.448836,-34.81047 0.630332,-50.92044 5.799762,-18.39553 15.981611,-33.00958 31.161927,-44.726852 4.63142,-3.574865 5.90727,-5.240666 7.30229,-9.534165 2.92771,-9.010713 10.09824,-21.761034 16.52858,-29.390399 15.64829,-18.566112 38.43451,-29.823074 63.56465,-31.402528 9.24364,-0.580972 10.28955,-0.863896 14.51227,-3.92566 6.5554,-4.753115 19.94077,-10.9157313 29.11226,-13.4032717 11.34385,-3.0767385 33.21006,-3.0767385 44.55391,0 9.17149,2.4875404 22.55685,8.6501567 29.11225,13.4032717 4.21987,3.059692 5.27223,3.344907 14.4757,3.923263 19.17945,1.205258 36.66489,7.910585 51.56464,19.774043 12.95363,10.313917 23.79146,25.98058 28.62625,41.380744 1.29109,4.112515 2.51224,6.014485 4.68598,7.298544 4.81979,2.847118 16.49679,14.38374 21.03032,20.7775 15.74279,22.20245 20.55714,49.91425 13.32681,76.71023 l -2.18384,8.09339 2.08874,7.11502 c 6.04434,20.58921 4.09426,43.68013 -5.37389,63.63235 -6.09044,12.83438 -18.69368,27.64686 -29.37514,34.52435 -1.75369,1.12916 -3.09269,3.19758 -3.78518,5.8472 -0.58935,2.25498 -2.83527,7.77855 -4.99094,12.2746 -3.35619,6.99997 -3.75249,8.49382 -2.75792,10.39591 0.63882,1.2217 13.84241,24.19227 29.34132,51.04571 15.49892,26.85344 28.0224,48.96272 27.82997,49.13174 -0.19244,0.16902 -18.82936,3.37098 -41.41538,7.11547 l -41.06549,6.80817 -25.97046,31.66863 c -14.28376,17.41775 -26.35167,31.79571 -26.81758,31.95101 -0.46591,0.15531 -14.18533,-22.88427 -30.48759,-51.19905 -16.30227,-28.31478 -29.86325,-51.48111 -30.13553,-51.48074 -0.27227,3.8e-4 -13.83304,23.1577 -30.13503,51.46071 -16.30199,28.30302 -29.93424,51.46004 -30.29388,51.46004 -0.35964,0 -12.33007,-14.24584 -26.60095,-31.65742 z m 41.95276,-52.995 c 9.68041,-16.88098 18.44031,-32.08815 19.46646,-33.79371 l 1.86573,-3.10101 -5.15239,-1.68526 c -6.74306,-2.20554 -15.80453,-6.7953 -22.58721,-11.44072 -5.24518,-3.5924 -5.82786,-3.74928 -15.84139,-4.26492 -15.60231,-0.80345 -30.32285,-5.61346 -43.0665,-14.07221 -3.04171,-2.01898 -5.84595,-3.3683 -6.23163,-2.99851 -0.38569,0.36979 -7.86562,13.01194 -16.62208,28.09365 -12.74428,21.95017 -15.60866,27.54154 -14.35626,28.02395 0.86052,0.33146 12.3993,2.32783 25.64174,4.43638 l 24.07717,3.83371 16.47662,20.07269 c 12.76908,15.55596 16.73003,19.79321 17.60281,18.83066 0.61941,-0.68311 9.04653,-15.05373 18.72693,-31.9347 z m 126.29649,13.32682 c 8.95013,-10.91259 17.17106,-20.04374 18.26873,-20.29144 1.09768,-0.2477 12.62877,-2.2121 25.62466,-4.36534 12.99588,-2.15325 23.72938,-4.04919 23.85223,-4.21321 0.26127,-0.34884 -31.30266,-54.8232 -32.34097,-55.81541 -0.38569,-0.36856 -3.18992,0.98177 -6.23163,3.00075 -12.74366,8.45875 -27.46419,13.26876 -43.0665,14.07221 -10.01208,0.51557 -10.59697,0.67298 -15.84139,4.26335 -6.44395,4.41158 -14.1454,8.38671 -21.88669,11.2969 l -5.60751,2.10804 19.44107,33.65501 c 20.14954,34.88146 20.88497,36.13022 21.27808,36.13022 0.13033,0 7.55979,-8.92848 16.50992,-19.84108 z m -66.82362,-78.68744 c 8.76959,-2.22919 19.02697,-7.62672 25.51768,-13.42763 l 5.75545,-5.1438 14.54133,-0.17307 c 16.58371,-0.19739 22.20012,-1.65714 32.8436,-8.53636 14.37229,-9.28926 25.23982,-25.71979 27.30406,-41.28076 0.68519,-5.16523 0.73847,-5.23163 6.74972,-8.41319 3.47786,-1.84073 9.24509,-6.37036 13.53787,-10.63276 12.2363,-12.1497 17.78272,-25.34076 17.75294,-42.22183 -0.0179,-10.13067 -1.47912,-17.17287 -5.34238,-25.74638 l -2.74308,-6.08757 3.48608,-8.76374 c 7.6313,-19.18451 6.41496,-37.94752 -3.54182,-54.63541 -4.42568,-7.41759 -13.94083,-16.69114 -22.06038,-21.50025 l -6.76423,-4.00636 -1.33699,-6.88459 c -3.38938,-17.452845 -16.65984,-35.011071 -31.97789,-42.310119 -11.7607,-5.603971 -25.0865,-7.706046 -36.69745,-5.78883 -4.45287,0.735265 -4.60642,0.667963 -10.39591,-4.556509 -3.23196,-2.916539 -9.4406,-7.074457 -13.79698,-9.239819 -23.36346,-11.612928 -48.50615,-7.9601 -69.1448,10.045627 -4.79631,4.184426 -5.35607,4.414578 -9.07206,3.730042 -11.70846,-2.156862 -25.59805,0.06799 -37.71908,6.041876 -14.79427,7.291408 -26.61791,22.733425 -30.73712,40.143579 -0.90187,3.811833 -1.76601,7.445313 -1.92031,8.074403 -0.1543,0.62909 -3.08458,2.63402 -6.51173,4.45539 -8.92327,4.74232 -19.55445,15.69869 -24.03541,24.77062 -4.914814,9.9503 -6.475227,16.54094 -6.489012,27.40736 -0.01275,10.05309 1.548293,17.55253 5.596792,26.88758 l 2.58762,5.96655 -3.00658,6.66391 c -4.175276,9.25427 -5.584081,16.07794 -5.472612,26.50707 0.222587,20.82539 13.086932,41.79591 31.737872,51.73676 l 5.74774,3.06351 1.09414,6.2421 c 4.17521,23.8197 22.10396,42.68238 45.52091,47.89215 5.48931,1.22126 10.319,1.5417 18.02765,1.19612 l 10.52957,-0.47204 5.73263,5.18094 c 6.69655,6.05209 15.60618,11.05679 23.96997,13.46436 7.60291,2.18854 22.81978,2.36238 30.7322,0.35107 z m -35.68263,-29.74247 c -46.38904,-7.83826 -85.54717,-39.10648 -103.00696,-82.25225 -6.30314,-15.576 -8.50438,-26.4875 -9.09364,-45.07688 -0.40641,-12.82083 -0.14807,-18.77425 1.16001,-26.73234 9.16844,-55.77911 52.59452,-99.770341 108.96041,-110.378431 12.18909,-2.293993 34.55802,-2.243442 47.02913,0.10628 55.77414,10.508584 98.82614,54.127531 108.38963,109.817001 1.96953,11.46883 1.9465,33.22929 -0.0472,44.62757 -9.96604,56.97666 -54.36624,100.65897 -111.77818,109.9709 -10.90157,1.76818 -30.89692,1.72885 -41.61317,-0.0819 z m 39.85063,-29.65972 c 35.54537,-6.74284 65.15809,-30.9546 78.44535,-64.13796 13.34121,-33.31808 7.97871,-72.57277 -13.87611,-101.57631 -13.95596,-18.52095 -34.67246,-32.25459 -57.88579,-38.374353 -8.6563,-2.282073 -11.82995,-2.61018 -25.24722,-2.61018 -13.35863,0 -16.60018,0.332078 -25.02677,2.563844 -40.02512,10.600589 -69.05799,41.112729 -77.43085,81.376069 -2.36807,11.38756 -2.20198,30.15805 0.37054,41.87688 4.12918,18.81007 12.61133,34.97759 25.58739,48.77122 16.00278,17.01106 33.14513,26.74814 55.70787,31.64279 10.57967,2.2951 28.59456,2.50933 39.35559,0.468 z m -56.94192,-75.98946 -26.97865,-26.99204 10.40846,-10.37304 10.40846,-10.37303 16.57189,16.57189 16.5719,16.5719 27.97538,-27.96246 27.97538,-27.96247 10.61403,10.61404 10.61403,10.61403 -38.07561,38.1416 c -20.94159,20.97789 -38.30759,38.14161 -38.59111,38.14161 -0.28353,0 -12.6559,-12.14641 -27.49416,-26.99203 z"
       id="path1" />
  </g>
</svg>
