<svg xmlns="http://www.w3.org/2000/svg" xmlns:xlink="http://www.w3.org/1999/xlink" width="3000" zoomAndPan="magnify" viewBox="0 0 2250 2250.000011" height="3000" preserveAspectRatio="xMidYMid meet" version="1.0"><defs><clipPath id="29ce634554"><path d="M 1037 181.675781 L 1817 181.675781 L 1817 1168 L 1037 1168 Z M 1037 181.675781 " clip-rule="nonzero"/></clipPath><clipPath id="3be85ddaed"><path d="M 433 1080 L 1213 1080 L 1213 2067.085938 L 433 2067.085938 Z M 433 1080 " clip-rule="nonzero"/></clipPath><clipPath id="618cd26d0c"><path d="M 433 181.675781 L 1214 181.675781 L 1214 1167 L 433 1167 Z M 433 181.675781 " clip-rule="nonzero"/></clipPath><clipPath id="064565adbf"><path d="M 1036 1081 L 1817 1081 L 1817 2067.085938 L 1036 2067.085938 Z M 1036 1081 " clip-rule="nonzero"/></clipPath></defs><g clip-path="url(#29ce634554)"><path fill="#c79a34" d="M 1119.535156 181.644531 C 1133.296875 227.355469 1131.988281 357.757812 1206.9375 592.09375 C 1249.625 725.578125 1305.175781 822.292969 1356.550781 887.167969 C 1465.695312 1025 1620.136719 1102.863281 1816.582031 1120.253906 L 1037.4375 1167.800781 Z M 1119.535156 181.644531 " fill-opacity="1" fill-rule="nonzero"/></g><g clip-path="url(#3be85ddaed)"><path fill="#c79a34" d="M 1130.585938 2067.113281 C 1116.824219 2021.402344 1118.132812 1891.003906 1043.1875 1656.664062 C 1000.496094 1523.183594 944.945312 1426.46875 893.574219 1361.59375 C 784.429688 1223.761719 629.984375 1145.894531 433.539062 1128.503906 L 1212.683594 1080.957031 Z M 1130.585938 2067.113281 " fill-opacity="1" fill-rule="nonzero"/></g><g clip-path="url(#618cd26d0c)"><path fill="#c79a34" d="M 1119.460938 181.644531 C 1106.238281 227.515625 1109.085938 357.890625 1036.910156 593.097656 C 995.796875 727.074219 941.390625 824.4375 890.789062 889.914062 C 783.277344 1029.023438 629.765625 1108.707031 433.539062 1128.417969 L 1213.191406 1166.765625 Z M 1119.460938 181.644531 " fill-opacity="1" fill-rule="nonzero"/></g><g clip-path="url(#064565adbf)"><path fill="#c79a34" d="M 1130.660156 2067.113281 C 1143.882812 2021.242188 1141.039062 1890.867188 1213.210938 1655.660156 C 1254.324219 1521.683594 1308.730469 1424.320312 1359.332031 1358.84375 C 1466.84375 1219.734375 1620.355469 1140.050781 1816.585938 1120.34375 L 1036.929688 1081.996094 Z M 1130.660156 2067.113281 " fill-opacity="1" fill-rule="nonzero"/></g></svg>